# xmcd CD database file
#
# Track frame offsets:
#	150
#	5724
#	40918
#	57290
#	93819
#	108132
#	150727
#	155095
#	197835
#	217986
#	261828
#
# Disc length: 3552 seconds
#
# Revision: 0
# Processed by: cddbd v1.5.2PL0 Copyright (c) Steve Scherf et al.
# Submitted via: CDex 1.70beta2
#
DISCID=8d0dde0b
DTITLE=Reggie Washington - Vintage New Acoustic
DYEAR=2018
DGENRE=Jazz
TTITLE0=Always Moving
TTITLE1=Fall
TTITLE2=Eleanor Rigby
TTITLE3=Half Position Woody
TTITLE4=Afro Blue
TTITLE5=E.S.P.
TTITLE6=Thoughts Of Buckshot
TTITLE7=Footprints
TTITLE8=Moanin'
TTITLE9=B3 Blues 4 Leroy
TTITLE10=Always Moving (Reprise Ending)
EXTD=YEAR: 2018
EXTT0=
EXTT1=
EXTT2=
EXTT3=
EXTT4=
EXTT5=
EXTT6=
EXTT7=
EXTT8=
EXTT9=
EXTT10=
PLAYORDER=
